<?xml version="1.0" encoding="UTF-8"?>
<svg version="1.1" xmlns="http://www.w3.org/2000/svg" width="343" height="104">
<path d="M0 0 C0.85965583 0.00054477 1.71931166 0.00108953 2.60501766 0.00165081 C3.59077785 -0.00254368 4.57653805 -0.00673817 5.59216976 -0.01105976 C6.67744457 -0.00544025 7.76271938 0.00017925 8.88088131 0.00596905 C10.59066158 0.00312153 10.59066158 0.00312153 12.33498287 0.00021648 C16.11784817 -0.00350041 19.9005232 0.00722535 23.68337154 0.01842022 C26.30128615 0.01961153 28.91920119 0.02006529 31.53711605 0.01980877 C37.02917016 0.02074581 42.52116906 0.02943579 48.01320553 0.04307842 C54.37071419 0.05881219 60.72816241 0.06407628 67.08568913 0.06334287 C73.19285903 0.06273339 79.30000594 0.06793871 85.4071703 0.07613468 C88.01042658 0.07932805 90.61368465 0.08129031 93.21694279 0.08202839 C96.84714115 0.08418442 100.47726197 0.09291239 104.10744381 0.1036253 C105.19474285 0.10317211 106.28204189 0.10271893 107.40228939 0.10225201 C108.38522976 0.10651699 109.36817013 0.11078197 110.38089657 0.1151762 C111.24017537 0.11685205 112.09945417 0.11852789 112.98477173 0.12025452 C114.92946529 0.24888897 114.92946529 0.24888897 115.92946529 1.24888897 C116.01684175 3.10258508 116.03644682 4.95956438 116.02712154 6.81529522 C116.02228756 8.50235577 116.02228756 8.50235577 116.01735592 10.22349834 C116.00478756 11.9995042 116.00478756 11.9995042 115.99196529 13.81138897 C115.98745358 14.99926006 115.98294186 16.18713116 115.97829342 17.41099834 C115.96646215 20.35698309 115.94852606 23.30294213 115.92946529 26.24888897 C110.31946529 26.24888897 104.70946529 26.24888897 98.92946529 26.24888897 C98.92946529 20.63888897 98.92946529 15.02888897 98.92946529 9.24888897 C97.03812359 9.2555508 97.03812359 9.2555508 95.10857296 9.26234722 C83.24799355 9.3028234 71.38742809 9.33283968 59.52679539 9.35251331 C53.42856762 9.36296758 47.33039544 9.37715669 41.23219967 9.39976788 C35.35132835 9.42143774 29.47051062 9.4334452 23.58960247 9.43864346 C21.34163093 9.44234977 19.09366245 9.44958685 16.84571362 9.46034908 C13.70641051 9.47478617 10.5673312 9.47687018 7.42800045 9.47593975 C6.02214939 9.48672558 6.02214939 9.48672558 4.5878973 9.4977293 C3.73531841 9.49497997 2.88273952 9.49223064 2.00432491 9.489398 C1.26135977 9.49124159 0.51839462 9.49308517 -0.24708462 9.49498463 C-2.07053471 9.24888897 -2.07053471 9.24888897 -4.07053471 7.24888897 C-4.32053471 4.74888897 -4.32053471 4.74888897 -4.07053471 2.24888897 C-2.07053471 0.24888897 -2.07053471 0.24888897 0 0 Z " fill="#037BCA" transform="translate(26.070534706115723,58.75111103057861)"/>
<path d="M0 0 C2.64 0 5.28 0 8 0 C10.00503509 2.00503509 9.25588663 6.00025444 9.31640625 8.75390625 C9.33718735 9.52935287 9.35796844 10.3047995 9.37937927 11.10374451 C9.44495802 13.58990308 9.50379799 16.07617045 9.5625 18.5625 C9.60567733 20.24415204 9.64929136 21.92579294 9.69335938 23.60742188 C9.80064779 27.73816871 9.90189132 31.86902536 10 36 C10.74765625 35.18015625 11.4953125 34.3603125 12.265625 33.515625 C13.26036773 32.42703861 14.25516213 31.33849945 15.25 30.25 C15.74113281 29.71117188 16.23226563 29.17234375 16.73828125 28.6171875 C24.54369624 20.08326711 24.54369624 20.08326711 27.140625 19.609375 C29.09375 19.73958333 31.046875 19.86979167 33 20 C33 24 33 24 31.69897461 25.67578125 C31.10608643 26.21589844 30.51319824 26.75601563 29.90234375 27.3125 C29.26619141 27.91320312 28.63003906 28.51390625 27.97460938 29.1328125 C26.61441226 30.37955118 25.25242475 31.62433931 23.88867188 32.8671875 C23.25380859 33.46789063 22.61894531 34.06859375 21.96484375 34.6875 C21.07720337 35.49767578 21.07720337 35.49767578 20.17163086 36.32421875 C18.7928128 37.92636379 18.7928128 37.92636379 19.11938477 39.94750977 C20.15886279 42.37026877 21.45290564 44.1126042 23.125 46.15234375 C23.74890625 46.92900391 24.3728125 47.70566406 25.015625 48.50585938 C26.33662913 50.12460951 27.65954211 51.74180381 28.984375 53.35742188 C29.60828125 54.13537109 30.2321875 54.91332031 30.875 55.71484375 C31.44992187 56.41730225 32.02484375 57.11976074 32.6171875 57.84350586 C34.1571035 60.24500268 34.61682969 62.19284765 35 65 C31.84642916 65.57226961 29.14219135 65.69819579 26 65 C22.91365818 62.49919153 20.80835414 59.44088649 18.5625 56.1875 C17.95212891 55.35412109 17.34175781 54.52074219 16.71289062 53.66210938 C14.4004438 50.4879128 12.17837641 47.26756461 10 44 C9.97494385 44.60062256 9.9498877 45.20124512 9.92407227 45.82006836 C9.8084472 48.52611437 9.68557064 51.23178283 9.5625 53.9375 C9.50352539 55.35579102 9.50352539 55.35579102 9.44335938 56.80273438 C9.40146484 57.70185547 9.35957031 58.60097656 9.31640625 59.52734375 C9.26141968 60.77632446 9.26141968 60.77632446 9.20532227 62.05053711 C9 64 9 64 8 65 C5.36 65 2.72 65 0 65 C0 43.55 0 22.1 0 0 Z " fill="#171A1D" transform="translate(243,20)"/>
<path d="M0 0 C0.98423447 -0.0021904 1.96846893 -0.0043808 2.98252869 -0.00663757 C6.22990717 -0.00894587 9.47637551 0.01728672 12.72363281 0.04418945 C14.97853304 0.04911268 17.23343735 0.052412 19.48834229 0.05415344 C24.20932096 0.06179051 28.92999614 0.08234713 33.65087891 0.11328125 C39.71641101 0.15294658 45.781746 0.1709045 51.84739304 0.18059063 C57.61866657 0.19053932 63.38989145 0.21044459 69.16113281 0.23168945 C70.26925072 0.2350852 71.37736862 0.23848095 72.51906586 0.2419796 C75.63646823 0.25349702 78.75374235 0.27200661 81.87109375 0.29296875 C82.80406784 0.29565765 83.73704193 0.29834656 84.69828796 0.30111694 C91.06185479 0.35506768 91.06185479 0.35506768 92.17675781 1.4699707 C92.31932971 4.80615302 92.21903938 8.12972676 92.17675781 11.4699707 C86.23675781 11.4699707 80.29675781 11.4699707 74.17675781 11.4699707 C74.17675781 10.8099707 74.17675781 10.1499707 74.17675781 9.4699707 C44.80675781 9.4699707 15.43675781 9.4699707 -14.82324219 9.4699707 C-14.82324219 4.4699707 -14.82324219 4.4699707 -12.93719482 2.18684387 C-8.56470719 -0.2239207 -4.91691815 -0.06810203 0 0 Z " fill="#004978" transform="translate(49.8232421875,46.530029296875)"/>
<path d="M0 0 C0.5775 0.391875 1.155 0.78375 1.75 1.1875 C6.35997131 7.8719584 5.2744417 17.0557191 5.20581055 24.79321289 C5.18733638 26.95666053 5.18530277 29.11968414 5.18554688 31.28320312 C5.14776543 41.85223457 5.14776543 41.85223457 4 43 C1.66702567 43.04092937 -0.66705225 43.04241723 -3 43 C-3.33 42.01 -3.66 41.02 -4 40 C-5.134375 40.66 -6.26875 41.32 -7.4375 42 C-12.0348807 44.28648491 -15.93519656 44.77052668 -21 44 C-25.65168344 42.33241537 -28.59078764 40.35511465 -31 36 C-31.81979599 30.99757138 -31.54823991 27.15973827 -29.375 22.5625 C-25.87528484 18.78649154 -22.00427562 16.9623607 -17 16 C-14.75092848 15.93209325 -12.49998395 15.91500016 -10.25 15.9375 C-8.49429687 15.95103516 -8.49429687 15.95103516 -6.703125 15.96484375 C-5.81109375 15.97644531 -4.9190625 15.98804687 -4 16 C-4.66 12.37 -5.32 8.74 -6 5 C-12.81256416 3.29685896 -17.12256417 3.61567919 -23.10546875 7.125 C-25 8 -25 8 -29 8 C-29.25 5.1875 -29.25 5.1875 -29 2 C-22.58205384 -5.1880997 -7.40668269 -5.1277034 0 0 Z M-21 25 C-22.54586876 28.09173752 -22.29359521 30.59429552 -22 34 C-19.99296999 37.01054501 -18.77088787 37.82479821 -15.25 38.625 C-10.49899524 37.71134524 -7.01771281 35.84345512 -4 32 C-3.33513513 28.56316008 -3.50874192 25.45245262 -4 22 C-12.93981103 21.48718781 -12.93981103 21.48718781 -21 25 Z " fill="#0C0E10" transform="translate(315,42)"/>
<path d="M0 0 C1.28825684 0.01047363 2.57651367 0.02094727 3.90380859 0.03173828 C4.93167984 0.03598312 4.93167984 0.03598312 5.98031616 0.04031372 C8.17113636 0.05151797 10.36154925 0.07662219 12.55224609 0.10205078 C14.03661519 0.1120803 15.5209907 0.1212062 17.00537109 0.12939453 C20.6461287 0.15145784 24.28664766 0.18598903 27.92724609 0.22705078 C27.92724609 2.53705078 27.92724609 4.84705078 27.92724609 7.22705078 C20.33724609 7.22705078 12.74724609 7.22705078 4.92724609 7.22705078 C4.92724609 13.82705078 4.92724609 20.42705078 4.92724609 27.22705078 C12.18724609 27.22705078 19.44724609 27.22705078 26.92724609 27.22705078 C26.92724609 29.53705078 26.92724609 31.84705078 26.92724609 34.22705078 C19.66724609 34.22705078 12.40724609 34.22705078 4.92724609 34.22705078 C4.93884766 36.09232422 4.95044922 37.95759766 4.96240234 39.87939453 C4.97177835 42.30777895 4.98087875 44.73616445 4.98974609 47.16455078 C4.998125 48.39625 5.00650391 49.62794922 5.01513672 50.89697266 C5.01835937 52.06679687 5.02158203 53.23662109 5.02490234 54.44189453 C5.03013916 55.52591553 5.03537598 56.60993652 5.04077148 57.72680664 C4.92724609 60.22705078 4.92724609 60.22705078 3.92724609 61.22705078 C2.11474609 61.35986328 2.11474609 61.35986328 -0.07275391 61.35205078 C-0.79462891 61.35462891 -1.51650391 61.35720703 -2.26025391 61.35986328 C-4.07275391 61.22705078 -4.07275391 61.22705078 -5.07275391 60.22705078 C-5.17698327 58.42741418 -5.21129492 56.62368478 -5.21801758 54.82104492 C-5.22439743 53.66637222 -5.23077728 52.51169952 -5.23735046 51.32203674 C-5.23846329 50.06479294 -5.23957611 48.80754913 -5.24072266 47.51220703 C-5.24405106 46.23099472 -5.24737946 44.94978241 -5.25080872 43.62974548 C-5.25680582 40.91355548 -5.25864803 38.19739733 -5.25805664 35.48120117 C-5.257955 31.99614487 -5.27160607 28.51129223 -5.28882885 25.02628422 C-5.30260457 21.70908845 -5.30203715 18.39193108 -5.30322266 15.07470703 C-5.31040817 13.81948746 -5.31759369 12.56426788 -5.32499695 11.27101135 C-5.32192032 10.11318649 -5.31884369 8.95536163 -5.31567383 7.76245117 C-5.31709885 6.73954483 -5.31852386 5.71663849 -5.31999207 4.66273499 C-4.92924576 0.81327015 -3.76246338 0.27801454 0 0 Z " fill="#070808" transform="translate(149.07275390625,23.77294921875)"/>
<path d="M0 0 C1.27108864 -0.00262848 1.27108864 -0.00262848 2.56785583 -0.00531006 C5.37126711 -0.00971467 8.17461542 -0.00679598 10.97802734 -0.00341797 C12.92190564 -0.00409128 14.86578386 -0.00506154 16.80966187 -0.00631714 C20.88336997 -0.00779212 24.95705616 -0.00564547 29.03076172 -0.00097656 C34.26455741 0.00472818 39.4983019 0.00143575 44.73209572 -0.00454903 C48.74509063 -0.00815355 52.7580733 -0.00701669 56.77106857 -0.00442123 C58.7016742 -0.00375206 60.63228093 -0.00458007 62.56288528 -0.00690079 C65.25419332 -0.00942635 67.94541704 -0.00558844 70.63671875 0 C71.84452751 -0.00303635 71.84452751 -0.00303635 73.07673645 -0.00613403 C78.57470074 0.01513043 78.57470074 0.01513043 79.68896484 1.12939453 C79.76101996 2.81548419 79.77282552 4.50440112 79.75146484 6.19189453 C79.74244141 7.11099609 79.73341797 8.03009766 79.72412109 8.97705078 C79.71251953 9.68732422 79.70091797 10.39759766 79.68896484 11.12939453 C76.04314797 11.15826965 72.39736021 11.17615038 68.75146484 11.19189453 C67.71054688 11.20027344 66.66962891 11.20865234 65.59716797 11.21728516 C64.6078125 11.22050781 63.61845703 11.22373047 62.59912109 11.22705078 C61.68267822 11.2322876 60.76623535 11.23752441 59.82202148 11.24291992 C57.68896484 11.12939453 57.68896484 11.12939453 56.68896484 10.12939453 C54.51165096 10.00537539 52.33033031 9.95137943 50.1496582 9.92407227 C49.46676224 9.91417267 48.78386627 9.90427307 48.08027649 9.89407349 C45.81315632 9.86237518 43.54601516 9.8376684 41.27880859 9.81298828 C39.71081484 9.79242593 38.14282671 9.77142965 36.57484436 9.75001526 C32.44026236 9.69472029 28.30562973 9.64534391 24.17095947 9.59716797 C19.95491001 9.547007 15.73893442 9.49129279 11.52294922 9.43603516 C3.24501681 9.32836283 -5.03297724 9.22693818 -13.31103516 9.12939453 C-14.31103516 6.12939453 -14.31103516 6.12939453 -13.06103516 3.50439453 C-9.77986392 -0.94862357 -5.06287041 -0.01279202 0 0 Z " fill="#AAD3EE" transform="translate(62.31103515625,34.87060546875)"/>
<path d="M0 0 C1.28475723 -0.00622879 2.56951447 -0.01245758 3.89320374 -0.01887512 C5.28224072 -0.01018715 6.67127388 -0.00086917 8.06030273 0.0090332 C9.49706522 0.00955244 10.93382842 0.00903228 12.37059021 0.00752258 C15.37395914 0.00761205 18.37705819 0.01798911 21.38037109 0.03613281 C25.2226188 0.05883969 29.06447337 0.05935761 32.90676975 0.05261517 C35.8708188 0.04926812 38.83477882 0.05591876 41.79881096 0.0657444 C43.21533683 0.06958246 44.63187261 0.07075042 46.04840279 0.06915855 C48.02968709 0.06878618 50.01095795 0.08292074 51.9921875 0.09765625 C53.11770523 0.10226364 54.24322296 0.10687103 55.40284729 0.11161804 C58.50342595 0.37851472 60.66885256 0.9587341 63.43139648 2.37231445 C66.00076509 5.73907332 66.43139648 7.03830111 66.43139648 11.37231445 C61.89241943 11.39696838 57.35348105 11.41515234 52.81445312 11.42724609 C51.26919883 11.43228585 49.72394932 11.43911765 48.17871094 11.44775391 C45.9621462 11.45983521 43.7456443 11.46554618 41.52905273 11.4699707 C40.48685326 11.47771263 40.48685326 11.47771263 39.42359924 11.48561096 C37.75910319 11.48580722 36.0947415 11.43420574 34.43139648 11.37231445 C33.93639648 10.87731445 33.93639648 10.87731445 33.43139648 10.37231445 C31.95889004 10.24998801 30.48073937 10.19456885 29.00341797 10.16699219 C27.59206825 10.13707436 27.59206825 10.13707436 26.15220642 10.10655212 C25.12930008 10.08983963 24.10639374 10.07312714 23.05249023 10.0559082 C22.01069107 10.03512711 20.96889191 10.01434601 19.89552307 9.99293518 C16.55338402 9.92732388 13.21116363 9.86850115 9.86889648 9.80981445 C7.6091223 9.76664023 5.34935648 9.72302632 3.08959961 9.67895508 C-2.46304772 9.57163079 -8.01577672 9.46988634 -13.56860352 9.37231445 C-13.44360352 6.55981445 -13.44360352 6.55981445 -12.56860352 3.37231445 C-8.30773656 0.67163684 -4.99473496 -0.00279124 0 0 Z " fill="#A7D2EE" transform="translate(75.568603515625,22.627685546875)"/>
<path d="M0 0 C1.051875 -0.00386719 1.051875 -0.00386719 2.125 -0.0078125 C4 0.125 4 0.125 6 1.125 C6 3.435 6 5.745 6 8.125 C5.12988281 8.00318359 5.12988281 8.00318359 4.2421875 7.87890625 C-0.66100081 7.44404346 -0.66100081 7.44404346 -4.8984375 9.61328125 C-8.94518073 14.38054217 -10.12469443 17.36495982 -10.31640625 23.6640625 C-10.35830078 24.96601562 -10.40019531 26.26796875 -10.44335938 27.609375 C-10.48317299 28.98958045 -10.52288522 30.36978883 -10.5625 31.75 C-10.60569407 33.13803415 -10.64930865 34.52605528 -10.69335938 35.9140625 C-10.79972 39.31760256 -10.90174714 42.72121778 -11 46.125 C-17.15234375 46.22265625 -17.15234375 46.22265625 -19 46.125 C-20.53084425 44.59415575 -20.12715779 43.21296856 -20.12939453 41.08007812 C-20.13254669 40.22248901 -20.13569885 39.3648999 -20.13894653 38.48132324 C-20.1369223 37.54904907 -20.13489807 36.6167749 -20.1328125 35.65625 C-20.13376923 34.70560669 -20.13472595 33.75496338 -20.13571167 32.7755127 C-20.13639357 30.76131118 -20.13453862 28.74710748 -20.13037109 26.73291016 C-20.12502298 23.63829645 -20.13031577 20.5438279 -20.13671875 17.44921875 C-20.13605797 15.49739551 -20.13477681 13.54557236 -20.1328125 11.59375 C-20.13483673 10.66147583 -20.13686096 9.72920166 -20.13894653 8.76867676 C-20.13579437 7.91108765 -20.13264221 7.05349854 -20.12939453 6.16992188 C-20.12859894 5.41126831 -20.12780334 4.65261475 -20.12698364 3.87097168 C-20 2.125 -20 2.125 -19 1.125 C-16.66702567 1.08407063 -14.33294775 1.08258277 -12 1.125 C-11.34 2.445 -10.68 3.765 -10 5.125 C-9.38125 4.485625 -8.7625 3.84625 -8.125 3.1875 C-5.29650024 0.44219141 -3.82908313 -0.01407751 0 0 Z " fill="#080C10" transform="translate(207,38.875)"/>
<path d="M0 0 C0.98584076 -0.00058411 1.97168152 -0.00116821 2.98739624 -0.00177002 C6.23959806 0.00101236 9.4908786 0.03211252 12.74291992 0.06347656 C15.00021362 0.07093838 17.25751379 0.07663159 19.51481628 0.08062744 C25.45138483 0.09588828 31.38756094 0.1351745 37.32397461 0.17944336 C43.38349092 0.22038604 49.44307074 0.23863635 55.50268555 0.25878906 C67.38892553 0.30166788 79.27487444 0.36992509 91.16088867 0.45410156 C91.16088867 0.78410156 91.16088867 1.11410156 91.16088867 1.45410156 C89.51088867 1.45410156 87.86088867 1.45410156 86.16088867 1.45410156 C86.16088867 2.44410156 86.16088867 3.43410156 86.16088867 4.45410156 C36.66088867 4.94910156 36.66088867 4.94910156 -13.83911133 5.45410156 C-13.50911133 6.77410156 -13.17911133 8.09410156 -12.83911133 9.45410156 C-13.49911133 9.45410156 -14.15911133 9.45410156 -14.83911133 9.45410156 C-15.15161133 7.20410156 -15.15161133 7.20410156 -14.83911133 4.45410156 C-10.47872208 -0.45324459 -6.11333139 -0.09489624 0 0 Z " fill="#A4D0ED" transform="translate(49.839111328125,46.5458984375)"/>
<path d="M0 0 C0 12.21 0 24.42 0 37 C0.99 37.33 1.98 37.66 3 38 C2.67 38.66 2.34 39.32 2 40 C1.84733388 41.73868744 1.75067404 43.48247501 1.68359375 45.2265625 C1.64169922 46.2578125 1.59980469 47.2890625 1.55664062 48.3515625 C1.51732422 49.43179688 1.47800781 50.51203125 1.4375 51.625 C1.39431641 52.71296875 1.35113281 53.8009375 1.30664062 54.921875 C1.2003547 57.6144517 1.09831943 60.30712253 1 63 C-1.31 63 -3.62 63 -6 63 C-6 42.54 -6 22.08 -6 1 C-2 0 -2 0 0 0 Z " fill="#000004" transform="translate(250,22)"/>
<path d="M0 0 C33 0 66 0 100 0 C100 1.32 100 2.64 100 4 C67 4 34 4 0 4 C0 2.68 0 1.36 0 0 Z " fill="#0A2E46" transform="translate(24,64)"/>
<path d="M0 0 C1.97214478 -0.00472824 1.97214478 -0.00472824 3.98413086 -0.009552 C5.42561883 -0.00776217 6.86710649 -0.0057112 8.30859375 -0.00341797 C9.7806805 -0.00409131 11.25276715 -0.00506158 12.72485352 -0.00631714 C15.81169695 -0.0077927 18.89851148 -0.00564409 21.98535156 -0.00097656 C25.94674481 0.00472065 29.9080703 0.00144089 33.86946106 -0.00454903 C36.90971387 -0.00815845 39.94995056 -0.00701429 42.99020386 -0.00442123 C44.4510804 -0.00375302 45.9119584 -0.00457671 47.37283325 -0.00690079 C49.41261773 -0.0094335 51.45240732 -0.0048904 53.4921875 0 C55.23520142 0.00119339 55.23520142 0.00119339 57.01342773 0.00241089 C59.74609375 0.12939453 59.74609375 0.12939453 61.74609375 1.12939453 C64.38205619 1.22788104 66.98569231 1.26838781 69.62109375 1.25439453 C70.34167969 1.25826172 71.06226563 1.26212891 71.8046875 1.26611328 C75.25424386 1.25976051 78.45049566 1.21642427 81.74609375 0.12939453 C81.74609375 2.10939453 81.74609375 4.08939453 81.74609375 6.12939453 C78.26694434 6.15827267 74.78782544 6.1761514 71.30859375 6.19189453 C69.81875977 6.20446289 69.81875977 6.20446289 68.29882812 6.21728516 C67.35458984 6.22050781 66.41035156 6.22373047 65.4375 6.22705078 C64.12567749 6.23490601 64.12567749 6.23490601 62.78735352 6.24291992 C60.74609375 6.12939453 60.74609375 6.12939453 59.74609375 5.12939453 C57.63004279 5.00547771 55.50988092 4.95139547 53.39038086 4.92407227 C52.72699203 4.91417267 52.06360321 4.90427307 51.38011169 4.89407349 C49.1779238 4.86237716 46.9757143 4.83766919 44.7734375 4.81298828 C43.25028407 4.79242575 41.72713644 4.77142948 40.20399475 4.75001526 C36.18778161 4.69472206 32.17151637 4.6453449 28.1552124 4.59716797 C24.05980776 4.54700571 19.96447914 4.49129218 15.86914062 4.43603516 C7.8281892 4.32836499 -0.21282566 4.22693986 -8.25390625 4.12939453 C-8.25390625 3.13939453 -8.25390625 2.14939453 -8.25390625 1.12939453 C-5.45124217 -0.27193751 -3.13505287 0.00214648 0 0 Z " fill="#0C2638" transform="translate(59.25390625,39.87060546875)"/>
<path d="M0 0 C2.64 0 5.28 0 8 0 C8 14.85 8 29.7 8 45 C5.36 45 2.72 45 0 45 C0 30.15 0 15.3 0 0 Z " fill="#2F2F2F" transform="translate(221,40)"/>
<path d="M0 0 C9.61384418 -0.04627741 19.22765021 -0.08184573 28.84158134 -0.10362434 C33.30539755 -0.11407534 37.76913772 -0.12825844 42.23291016 -0.15087891 C46.53820674 -0.17256052 50.84343005 -0.1845587 55.14877701 -0.18975449 C56.79387694 -0.19345869 58.43897273 -0.20069177 60.0840416 -0.21146011 C62.38277704 -0.22591299 64.68120713 -0.22798058 66.97998047 -0.22705078 C68.2901413 -0.231492 69.60030212 -0.23593323 70.95016479 -0.24050903 C74 0 74 0 76 2 C76 3.32 76 4.64 76 6 C71.46102295 6.02465392 66.92208457 6.04283789 62.38305664 6.05493164 C60.83780234 6.0599714 59.29255284 6.0668032 57.74731445 6.07543945 C55.53074971 6.08752076 53.31424782 6.09323173 51.09765625 6.09765625 C50.05545677 6.10539818 50.05545677 6.10539818 48.99220276 6.11329651 C47.3277067 6.11349277 45.66334501 6.06189129 44 6 C43.505 5.505 43.505 5.505 43 5 C41.58882298 4.87790076 40.17179541 4.82229128 38.75561523 4.79467773 C37.85475693 4.77473251 36.95389862 4.75478729 36.02574158 4.73423767 C35.04658279 4.71752518 34.06742401 4.70081268 33.05859375 4.68359375 C32.06118668 4.66281265 31.0637796 4.64203156 30.03614807 4.62062073 C26.83667157 4.55501363 23.63711018 4.49618866 20.4375 4.4375 C18.27407961 4.39432538 16.11066794 4.35071145 13.94726562 4.30664062 C8.63160126 4.19932097 3.31585166 4.09757573 -2 4 C-1.34 2.68 -0.68 1.36 0 0 Z " fill="#024E80" transform="translate(66,28)"/>
<path d="M0 0 C38.61 0 77.22 0 117 0 C117 0.33 117 0.66 117 1 C116.07316406 1.06058594 115.14632812 1.12117188 114.19140625 1.18359375 C112.39509766 1.30927734 112.39509766 1.30927734 110.5625 1.4375 C109.36753906 1.51871094 108.17257813 1.59992187 106.94140625 1.68359375 C104.11429756 1.67656114 104.11429756 1.67656114 103 3 C101.63438234 3.10741771 100.26332757 3.14678988 98.89353943 3.15821838 C98.00867859 3.1680072 97.12381775 3.17779602 96.21214294 3.18788147 C95.23391068 3.19363693 94.25567841 3.1993924 93.24780273 3.20532227 C92.2235318 3.21522186 91.19926086 3.22512146 90.14395142 3.23532104 C86.7405228 3.26704171 83.33708019 3.29173507 79.93359375 3.31640625 C77.58089321 3.33696666 75.22819644 3.35796288 72.87550354 3.37937927 C66.66947474 3.43469424 60.46341208 3.48406181 54.25732422 3.53222656 C47.92998221 3.58237295 41.60268963 3.63809475 35.27539062 3.69335938 C22.8503026 3.80105615 10.42517174 3.90247537 -2 4 C-1.34 2.68 -0.68 1.36 0 0 Z " fill="#A1CFED" transform="translate(24,59)"/>
<path d="M0 0 C1.28825684 0.01047363 2.57651367 0.02094727 3.90380859 0.03173828 C4.93167984 0.03598312 4.93167984 0.03598312 5.98031616 0.04031372 C8.17113636 0.05151797 10.36154925 0.07662219 12.55224609 0.10205078 C14.03661519 0.1120803 15.5209907 0.1212062 17.00537109 0.12939453 C20.6461287 0.15145784 24.28664766 0.18598903 27.92724609 0.22705078 C27.92724609 0.88705078 27.92724609 1.54705078 27.92724609 2.22705078 C25.01292721 3.04878225 22.3250329 3.3926078 19.30224609 3.50830078 C18.43083984 3.54568359 17.55943359 3.58306641 16.66162109 3.62158203 C13.92724609 3.72705078 13.92724609 3.72705078 11.19287109 3.83251953 C10.32146484 3.86990234 9.45005859 3.90728516 8.55224609 3.94580078 C7.76076172 3.97609375 6.96927734 4.00638672 6.15380859 4.03759766 C3.60385068 4.19498253 3.60385068 4.19498253 -0.07275391 5.22705078 C-0.40275391 22.38705078 -0.73275391 39.54705078 -1.07275391 57.22705078 C-1.73275391 57.22705078 -2.39275391 57.22705078 -3.07275391 57.22705078 C-3.40275391 58.54705078 -3.73275391 59.86705078 -4.07275391 61.22705078 C-5.80090873 59.49889596 -5.20923482 57.17608839 -5.21801758 54.82104492 C-5.22439743 53.66637222 -5.23077728 52.51169952 -5.23735046 51.32203674 C-5.23846329 50.06479294 -5.23957611 48.80754913 -5.24072266 47.51220703 C-5.24405106 46.23099472 -5.24737946 44.94978241 -5.25080872 43.62974548 C-5.25680582 40.91355548 -5.25864803 38.19739733 -5.25805664 35.48120117 C-5.257955 31.99614487 -5.27160607 28.51129223 -5.28882885 25.02628422 C-5.30260457 21.70908845 -5.30203715 18.39193108 -5.30322266 15.07470703 C-5.31040817 13.81948746 -5.31759369 12.56426788 -5.32499695 11.27101135 C-5.32192032 10.11318649 -5.31884369 8.95536163 -5.31567383 7.76245117 C-5.31709885 6.73954483 -5.31852386 5.71663849 -5.31999207 4.66273499 C-4.92924576 0.81327015 -3.76246338 0.27801454 0 0 Z " fill="#543939" transform="translate(149.07275390625,23.77294921875)"/>
<path d="M0 0 C0.66 0.33 1.32 0.66 2 1 C2 2.65 2 4.3 2 6 C-5.26 6 -12.52 6 -20 6 C-19.98839844 7.86527344 -19.97679687 9.73054688 -19.96484375 11.65234375 C-19.95546775 14.08072817 -19.94636735 16.50911367 -19.9375 18.9375 C-19.92912109 20.16919922 -19.92074219 21.40089844 -19.91210938 22.66992188 C-19.90888672 23.83974609 -19.90566406 25.00957031 -19.90234375 26.21484375 C-19.89710693 27.29886475 -19.89187012 28.38288574 -19.88647461 29.49975586 C-20 32 -20 32 -21 33 C-23.33297433 33.04092937 -25.66705225 33.04241723 -28 33 C-28 31.68 -28 30.36 -28 29 C-27.34 28.67 -26.68 28.34 -26 28 C-25.97494385 27.2479126 -25.9498877 26.4958252 -25.92407227 25.72094727 C-25.80849486 22.33460804 -25.68559655 18.94857387 -25.5625 15.5625 C-25.52318359 14.37849609 -25.48386719 13.19449219 -25.44335938 11.97460938 C-25.38051758 10.28754883 -25.38051758 10.28754883 -25.31640625 8.56640625 C-25.27974854 7.52427979 -25.24309082 6.48215332 -25.20532227 5.40844727 C-25 3 -25 3 -24 2 C-22.39052528 1.85489109 -20.77525205 1.7728889 -19.16015625 1.71875 C-18.17982422 1.68136719 -17.19949219 1.64398438 -16.18945312 1.60546875 C-14.64161133 1.55326172 -14.64161133 1.55326172 -13.0625 1.5 C-11.03240603 1.43126955 -9.00244198 1.35854979 -6.97265625 1.28125 C-5.61539429 1.23581055 -5.61539429 1.23581055 -4.23071289 1.18945312 C-1.96239102 1.1353283 -1.96239102 1.1353283 0 0 Z " fill="#05080C" transform="translate(174,52)"/>
<path d="M0 0 C28.05 0 56.1 0 85 0 C85 0.99 85 1.98 85 3 C56.62 3 28.24 3 -1 3 C-0.67 2.01 -0.34 1.02 0 0 Z " fill="#0D2637" transform="translate(38,53)"/>
<path d="M0 0 C0.91652344 0.01160156 1.83304687 0.02320313 2.77734375 0.03515625 C3.69644531 0.04417969 4.61554688 0.05320313 5.5625 0.0625 C6.27277344 0.07410156 6.98304688 0.08570313 7.71484375 0.09765625 C7.71484375 1.41765625 7.71484375 2.73765625 7.71484375 4.09765625 C7.12916185 4.10188819 6.54347996 4.10612013 5.94005013 4.11048031 C-8.29761066 4.21369423 -22.53522151 4.32231799 -36.77279472 4.43699551 C-43.65791999 4.49232116 -50.54305044 4.54580207 -57.42822266 4.5949707 C-64.06773828 4.64239019 -70.7072007 4.69491008 -77.34665298 4.750597 C-79.8848756 4.77104116 -82.42311278 4.78975076 -84.96136093 4.80673027 C-88.50538163 4.83072869 -92.04930131 4.86078947 -95.59326172 4.89233398 C-96.65205536 4.89808945 -97.710849 4.90384491 -98.80172729 4.90977478 C-100.24467163 4.92445801 -100.24467163 4.92445801 -101.71676636 4.93943787 C-102.55559797 4.94589042 -103.39442959 4.95234297 -104.25868034 4.95899105 C-106.35416923 4.97170011 -106.35416923 4.97170011 -108.28515625 6.09765625 C-108.28515625 5.10765625 -108.28515625 4.11765625 -108.28515625 3.09765625 C-103.39678743 1.83625364 -98.56591506 1.93111143 -93.55371094 1.90820312 C-92.57923004 1.89990982 -91.60474915 1.89161652 -90.60073853 1.8830719 C-88.48966829 1.8657044 -86.37857914 1.85052864 -84.26747894 1.83729553 C-80.9314626 1.81624491 -77.59554208 1.7892271 -74.25958252 1.76062012 C-65.97929658 1.69083893 -57.69894301 1.63126473 -49.4185791 1.57159424 C-42.41352418 1.52075741 -35.40852243 1.46598247 -28.40354156 1.40577698 C-25.10797176 1.37911611 -21.8123972 1.35835901 -18.51678467 1.33776855 C-16.51086181 1.32117535 -14.50494123 1.30430439 -12.49902344 1.28710938 C-11.57540009 1.28292496 -10.65177673 1.27874054 -9.70016479 1.27442932 C-6.07663433 1.23824599 -3.24402104 0.13863338 0 0 Z " fill="#3597D8" transform="translate(130.28515625,59.90234375)"/>
<path d="M0 0 C-2.5654594 2.5654594 -4.47686668 2.54046087 -8 3 C-8 3.66 -8 4.32 -8 5 C-8.93972656 5.27263672 -8.93972656 5.27263672 -9.8984375 5.55078125 C-11.12433594 5.92783203 -11.12433594 5.92783203 -12.375 6.3125 C-13.59316406 6.67794922 -13.59316406 6.67794922 -14.8359375 7.05078125 C-17.33184629 7.91368185 -17.33184629 7.91368185 -19 11 C-19.37032217 14.29770342 -19.37032217 14.29770342 -19.4140625 18.07421875 C-19.43342865 18.7580513 -19.4527948 19.44188385 -19.4727478 20.1464386 C-19.53243997 22.32666625 -19.57888631 24.50694702 -19.625 26.6875 C-19.66318943 28.1673405 -19.70224174 29.647159 -19.7421875 31.12695312 C-19.83813202 34.7511005 -19.92220151 38.37541257 -20 42 C-20.66 42 -21.32 42 -22 42 C-22.33 43.32 -22.66 44.64 -23 46 C-24.53084425 44.46915575 -24.12715779 43.08796856 -24.12939453 40.95507812 C-24.13254669 40.09748901 -24.13569885 39.2398999 -24.13894653 38.35632324 C-24.1369223 37.42404907 -24.13489807 36.4917749 -24.1328125 35.53125 C-24.13376923 34.58060669 -24.13472595 33.62996338 -24.13571167 32.6505127 C-24.13639357 30.63631118 -24.13453862 28.62210748 -24.13037109 26.60791016 C-24.12502298 23.51329645 -24.13031577 20.4188279 -24.13671875 17.32421875 C-24.13605797 15.37239551 -24.13477681 13.42057236 -24.1328125 11.46875 C-24.13483673 10.53647583 -24.13686096 9.60420166 -24.13894653 8.64367676 C-24.13579437 7.78608765 -24.13264221 6.92849854 -24.12939453 6.04492188 C-24.12859894 5.28626831 -24.12780334 4.52761475 -24.12698364 3.74597168 C-24 2 -24 2 -23 1 C-20.66702567 0.95907063 -18.33294775 0.95758277 -16 1 C-15.34 2.32 -14.68 3.64 -14 5 C-13.38125 4.360625 -12.7625 3.72125 -12.125 3.0625 C-8.20365454 -0.74351177 -5.25644418 -0.08478136 0 0 Z " fill="#383838" transform="translate(211,39)"/>
<path d="M0 0 C2.64 0 5.28 0 8 0 C10.00503509 2.00503509 9.25588663 6.00025444 9.31640625 8.75390625 C9.33718735 9.52935287 9.35796844 10.3047995 9.37937927 11.10374451 C9.44495802 13.58990308 9.50379799 16.07617045 9.5625 18.5625 C9.60567733 20.24415204 9.64929136 21.92579294 9.69335938 23.60742188 C9.80064779 27.73816871 9.90189132 31.86902536 10 36 C10.74765625 35.18015625 11.4953125 34.3603125 12.265625 33.515625 C13.26036773 32.42703861 14.25516213 31.33849945 15.25 30.25 C15.74113281 29.71117188 16.23226563 29.17234375 16.73828125 28.6171875 C18.15193829 27.07158914 19.57565171 25.53573831 21 24 C21.7115625 23.21625 22.423125 22.4325 23.15625 21.625 C25 20 25 20 28.25 19.75 C29.61125 19.87375 29.61125 19.87375 31 20 C27.88648583 23.24324393 24.5551554 26.18509897 21.15625 29.12109375 C19.70316336 30.38727975 18.26578842 31.67169718 16.84375 32.97265625 C16.1528125 33.60042969 15.461875 34.22820313 14.75 34.875 C14.12609375 35.44992188 13.5021875 36.02484375 12.859375 36.6171875 C11 38 11 38 7 39 C7 26.79 7 14.58 7 2 C5.02 2.33 3.04 2.66 1 3 C1 23.46 1 43.92 1 65 C0.67 65 0.34 65 0 65 C0 43.55 0 22.1 0 0 Z " fill="#28364E" transform="translate(243,20)"/>
<path d="M0 0 C1.98 0 3.96 0 6 0 C6 3.3 6 6.6 6 10 C5.67 10 5.34 10 5 10 C5 8.02 5 6.04 5 4 C4.50757813 4.32613281 4.01515625 4.65226562 3.5078125 4.98828125 C-0.00921862 6.40714583 -3.39592886 6.2508742 -7.125 6.1875 C-7.85332031 6.18685547 -8.58164063 6.18621094 -9.33203125 6.18554688 C-14.71851504 6.14074248 -14.71851504 6.14074248 -17 5 C-19.09286161 4.87941945 -21.18949778 4.82257322 -23.28564453 4.79467773 C-23.92967224 4.78477814 -24.57369995 4.77487854 -25.23724365 4.76467896 C-27.36906235 4.73305501 -29.50090335 4.70830313 -31.6328125 4.68359375 C-33.10969629 4.66302498 -34.58657418 4.64202853 -36.06344604 4.62062073 C-39.95305611 4.56539201 -43.84271937 4.5159863 -47.73242188 4.46777344 C-51.70056907 4.41756423 -55.66863889 4.36187514 -59.63671875 4.30664062 C-67.42441367 4.19904928 -75.21217286 4.09760652 -83 4 C-82.67 3.34 -82.34 2.68 -82 2 C-73.67100374 1.97662717 -65.34202164 1.95895975 -57.01300049 1.94818783 C-53.14374619 1.94301275 -49.27451465 1.93601533 -45.40527344 1.92456055 C-41.65752953 1.91353738 -37.90980723 1.90768293 -34.16204834 1.90512276 C-32.74623271 1.90330293 -31.330418 1.89975139 -29.91461182 1.89426994 C-19.90432971 1.8571254 -9.97981085 2.26848658 0 3 C0 2.01 0 1.02 0 0 Z " fill="#3598D9" transform="translate(136,36)"/>
<path d="M0 0 C0 0.99 0 1.98 0 3 C-0.92263641 2.99333817 -1.84527283 2.98667633 -2.79586792 2.97981262 C-11.47774233 2.91977842 -20.15954734 2.87406484 -28.84158134 2.84456348 C-33.30544746 2.82888681 -37.76914251 2.80761231 -42.23291016 2.77368164 C-46.53821628 2.74115915 -50.84335756 2.72316208 -55.14877701 2.71536827 C-56.79389162 2.70981192 -58.4389969 2.69896211 -60.0840416 2.68280983 C-62.38288846 2.66112947 -64.68104834 2.65802904 -66.97998047 2.65942383 C-68.2901413 2.65276199 -69.60030212 2.64610016 -70.95016479 2.63923645 C-72.45983322 2.81781441 -72.45983322 2.81781441 -74 3 C-74.99 4.485 -74.99 4.485 -76 6 C-76.66 6 -77.32 6 -78 6 C-77.67 4.35 -77.34 2.7 -77 1 C-73.04246418 0.0742399 -69.31367087 -0.15759174 -65.25366211 -0.22119141 C-64.59611435 -0.2326973 -63.93856659 -0.24420319 -63.26109314 -0.25605774 C-61.09988962 -0.29257052 -58.93865704 -0.32232496 -56.77734375 -0.3515625 C-55.26949177 -0.37469759 -53.76164368 -0.39808807 -52.25379944 -0.42172241 C-49.09916746 -0.47007389 -45.94450966 -0.51501877 -42.78979492 -0.55761719 C-38.7489922 -0.6124992 -34.70838884 -0.67634301 -30.6677618 -0.74279213 C-27.55629016 -0.79289149 -24.44476129 -0.83800255 -21.33319283 -0.88163376 C-19.84324318 -0.90317173 -18.35331584 -0.92631473 -16.86341667 -0.9510994 C-14.78129292 -0.98503532 -12.69918634 -1.01219256 -10.61694336 -1.03759766 C-9.43289413 -1.05456696 -8.24884491 -1.07153625 -7.02891541 -1.08901978 C-4.47249524 -1.01388663 -2.42439212 -0.76050673 0 0 Z " fill="#5BABE0" transform="translate(140,26)"/>
<path d="M0 0 C1.32 0 2.64 0 4 0 C4 8.25 4 16.5 4 25 C-1.28 25 -6.56 25 -12 25 C-11.67 23.68 -11.34 22.36 -11 21 C-8.03 20.67 -5.06 20.34 -2 20 C-2.02320313 18.97519531 -2.04640625 17.95039062 -2.0703125 16.89453125 C-2.08908036 15.53386149 -2.10727947 14.1731838 -2.125 12.8125 C-2.14175781 12.13896484 -2.15851563 11.46542969 -2.17578125 10.77148438 C-2.21538674 6.71192193 -1.80020002 3.65001185 0 0 Z " fill="#256A99" transform="translate(138,60)"/>
<path d="M0 0 C0.99 0 1.98 0 3 0 C3 18.81 3 37.62 3 57 C1.515 57.495 1.515 57.495 0 58 C0 38.86 0 19.72 0 0 Z " fill="#313131" transform="translate(244,23)"/>
<path d="M0 0 C8.57078647 -0.02314216 17.14155995 -0.04092467 25.71236992 -0.05181217 C29.69188412 -0.05703689 33.67137699 -0.0641271 37.65087891 -0.07543945 C41.48933243 -0.08628291 45.3277654 -0.09227994 49.16623306 -0.09487724 C50.63269499 -0.09672885 52.09915577 -0.10034444 53.56560898 -0.10573006 C55.61521612 -0.11295983 57.66473768 -0.11399012 59.71435547 -0.11352539 C61.466418 -0.11685631 61.466418 -0.11685631 63.25387573 -0.12025452 C66 0 66 0 68 1 C70.63596244 1.09848651 73.23959856 1.13899328 75.875 1.125 C76.59558594 1.12886719 77.31617188 1.13273437 78.05859375 1.13671875 C81.50815011 1.13036598 84.70440191 1.08702974 88 0 C88 1.98 88 3.96 88 6 C81.07 6 74.14 6 67 6 C66.505 4.515 66.505 4.515 66 3 C63.24406862 1.62203431 60.98220186 1.83701061 57.89794922 1.79467773 C56.61677216 1.77473251 55.33559509 1.75478729 54.01559448 1.73423767 C52.61196006 1.71725331 51.20832437 1.70037451 49.8046875 1.68359375 C48.37264403 1.6630246 46.94060663 1.64202814 45.50857544 1.62062073 C41.73733437 1.56539597 37.96603848 1.51598853 34.19470215 1.46777344 C30.34719964 1.41756133 26.49977687 1.36187376 22.65234375 1.30664062 C15.10163 1.19905413 7.55085 1.09761029 0 1 C0 0.67 0 0.34 0 0 Z " fill="#034A78" transform="translate(53,40)"/>
<path d="M0 0 C1.28825684 0.01047363 2.57651367 0.02094727 3.90380859 0.03173828 C4.93167984 0.03598312 4.93167984 0.03598312 5.98031616 0.04031372 C8.17113636 0.05151797 10.36154925 0.07662219 12.55224609 0.10205078 C14.03661519 0.1120803 15.5209907 0.1212062 17.00537109 0.12939453 C20.6461287 0.15145784 24.28664766 0.18598903 27.92724609 0.22705078 C27.92724609 0.88705078 27.92724609 1.54705078 27.92724609 2.22705078 C24.41300086 3.28660326 21.07068735 3.4270322 17.41162109 3.54345703 C15.72117676 3.6006189 15.72117676 3.6006189 13.99658203 3.65893555 C11.85851074 3.72359009 11.85851074 3.72359009 9.67724609 3.78955078 C2.87099609 4.00611328 2.87099609 4.00611328 -4.07275391 4.22705078 C-4.07275391 22.70705078 -4.07275391 41.18705078 -4.07275391 60.22705078 C-4.40275391 60.22705078 -4.73275391 60.22705078 -5.07275391 60.22705078 C-5.11904681 52.69936298 -5.15460755 45.1716899 -5.17637825 37.64389229 C-5.18682588 34.14861151 -5.20100274 30.65342795 -5.22363281 27.15820312 C-5.24947343 23.14208022 -5.25921856 19.12605982 -5.26806641 15.10986328 C-5.27838898 13.85150665 -5.28871155 12.59315002 -5.29934692 11.29666138 C-5.29949799 10.13560883 -5.29964905 8.97455627 -5.29980469 7.77832031 C-5.30424591 6.75239777 -5.30868713 5.72647522 -5.31326294 4.66946411 C-4.93362673 0.81418878 -3.76653075 0.27831508 0 0 Z " fill="#AFB096" transform="translate(149.07275390625,23.77294921875)"/>
<path d="M0 0 C1.98 0 3.96 0 6 0 C6 3.3 6 6.6 6 10 C5.67 10 5.34 10 5 10 C5 8.02 5 6.04 5 4 C4.42587246 4.16330276 3.85174492 4.32660551 3.26021957 4.49485683 C1.02055111 4.99540697 -0.87433539 5.10897796 -3.16351318 5.08229065 C-3.98518478 5.07525116 -4.80685638 5.06821167 -5.65342712 5.06095886 C-6.54606766 5.04801285 -7.43870819 5.03506683 -8.35839844 5.02172852 C-9.77841911 5.0073172 -9.77841911 5.0073172 -11.22712708 4.99261475 C-14.35461924 4.95964746 -17.48197074 4.91930632 -20.609375 4.87890625 C-22.778417 4.85460292 -24.9474642 4.83075947 -27.11651611 4.80735779 C-32.8244621 4.74453806 -38.53231602 4.67546533 -44.24017334 4.60510254 C-50.06502084 4.5344001 -55.8899336 4.46959455 -61.71484375 4.40429688 C-73.14330088 4.27531171 -84.57166945 4.13972242 -96 4 C-96 3.67 -96 3.34 -96 3 C-64.32 3 -32.64 3 0 3 C0 2.01 0 1.02 0 0 Z " fill="#047FD0" transform="translate(136,48)"/>
<path d="M0 0 C0.33 0 0.66 0 1 0 C1 13.86 1 27.72 1 42 C-0.98 42 -2.96 42 -5 42 C-5 40.68 -5 39.36 -5 38 C-4.01 37.505 -4.01 37.505 -3 37 C-2.970271 35.42532959 -2.970271 35.42532959 -2.93994141 33.81884766 C-2.86397802 29.93106739 -2.77524702 26.04366597 -2.68261719 22.15625 C-2.64428896 20.47240671 -2.60944288 18.78848045 -2.578125 17.10449219 C-2.53255713 14.68654694 -2.47455077 12.26917472 -2.4140625 9.8515625 C-2.40251129 9.0963028 -2.39096008 8.34104309 -2.37905884 7.56289673 C-2.22774341 2.22774341 -2.22774341 2.22774341 0 0 Z " fill="#000000" transform="translate(227,43)"/>
<path d="M0 0 C0.66 0 1.32 0 2 0 C2 0.99 2 1.98 2 3 C2.99 3 3.98 3 5 3 C5 5.97 5 8.94 5 12 C3.85402344 12.09796875 2.70804687 12.1959375 1.52734375 12.296875 C-0.00268828 12.44706219 -1.5326319 12.59815205 -3.0625 12.75 C-3.81466797 12.811875 -4.56683594 12.87375 -5.34179688 12.9375 C-10.82154765 13.50682476 -14.47202 14.81193245 -19 18 C-20.40183436 19.813697 -20.40183436 19.813697 -20.9375 21.75 C-21.288125 22.8225 -21.63875 23.895 -22 25 C-22.66 25 -23.32 25 -24 25 C-24 26.65 -24 28.3 -24 30 C-24.33 30 -24.66 30 -25 30 C-25.35446263 25.01783075 -25.54177269 21.14605761 -23.375 16.5625 C-19.87528484 12.78649154 -16.00427562 10.9623607 -11 10 C-8.75092848 9.93209325 -6.49998395 9.91500016 -4.25 9.9375 C-2.49429687 9.95103516 -2.49429687 9.95103516 -0.703125 9.96484375 C0.18890625 9.97644531 1.0809375 9.98804688 2 10 C1.34 6.7 0.68 3.4 0 0 Z " fill="#9E9994" transform="translate(309,48)"/>
<path d="M0 0 C13.53 0 27.06 0 41 0 C41.495 1.485 41.495 1.485 42 3 C27.81 3 13.62 3 -1 3 C-0.67 2.01 -0.34 1.02 0 0 Z " fill="#0B2637" transform="translate(67,29)"/>
<path d="M0 0 C1.79244141 0.01740234 1.79244141 0.01740234 3.62109375 0.03515625 C5.41740234 0.04869141 5.41740234 0.04869141 7.25 0.0625 C8.17683594 0.07410156 9.10367188 0.08570313 10.05859375 0.09765625 C10.05859375 1.08765625 10.05859375 2.07765625 10.05859375 3.09765625 C-21.62140625 3.09765625 -53.30140625 3.09765625 -85.94140625 3.09765625 C-85.94140625 2.76765625 -85.94140625 2.43765625 -85.94140625 2.09765625 C-84.91632462 2.08734879 -83.89124298 2.07704132 -82.83509827 2.06642151 C-73.19627387 1.96885956 -63.55751652 1.86614227 -53.91880131 1.75831699 C-48.96289913 1.70304423 -44.00699111 1.64961741 -39.05102539 1.6003418 C-34.27236555 1.55276229 -29.49377983 1.50042207 -24.71520805 1.4447155 C-22.88789136 1.42426278 -21.06055431 1.40555464 -19.23320198 1.38858223 C-16.68281791 1.36460251 -14.13257528 1.33453961 -11.58227539 1.30297852 C-10.81911011 1.29722305 -10.05594482 1.29146759 -9.26965332 1.28553772 C-5.72125782 1.23529495 -3.30067285 0.10958409 0 0 Z " fill="#5EACE1" transform="translate(125.94140625,47.90234375)"/>
<path d="M0 0 C1.32 0 2.64 0 4 0 C4 1.32 4 2.64 4 4 C3.01 4 2.02 4 1 4 C1 17.53 1 31.06 1 45 C0.34 44.67 -0.32 44.34 -1 44 C-1.02464513 37.8944529 -1.04283371 31.78893449 -1.05493164 25.68334961 C-1.05997288 23.60456844 -1.06680574 21.52579084 -1.07543945 19.44702148 C-1.08751422 16.46597414 -1.09323024 13.48497351 -1.09765625 10.50390625 C-1.10539818 9.10078941 -1.10539818 9.10078941 -1.11329651 7.66932678 C-1.11337204 6.80850998 -1.11344757 5.94769318 -1.11352539 5.06079102 C-1.115746 4.29912125 -1.11796661 3.53745148 -1.12025452 2.75270081 C-1 1 -1 1 0 0 Z " fill="#BC9A81" transform="translate(188,40)"/>
<path d="M0 0 C0.721875 0.00257812 1.44375 0.00515625 2.1875 0.0078125 C2.909375 0.00523438 3.63125 0.00265625 4.375 0 C6.1875 0.1328125 6.1875 0.1328125 7.1875 1.1328125 C7.3125 4.6328125 7.3125 4.6328125 7.1875 8.1328125 C6.1875 9.1328125 6.1875 9.1328125 4.375 9.265625 C3.653125 9.26304688 2.93125 9.26046875 2.1875 9.2578125 C1.465625 9.26039062 0.74375 9.26296875 0 9.265625 C-1.8125 9.1328125 -1.8125 9.1328125 -2.8125 8.1328125 C-2.9375 4.6328125 -2.9375 4.6328125 -2.8125 1.1328125 C-1.8125 0.1328125 -1.8125 0.1328125 0 0 Z " fill="#0A0B0E" transform="translate(222.8125,22.8671875)"/>
<path d="M0 0 C0.9075 0.0825 1.815 0.165 2.75 0.25 C-0.36278045 3.49247964 -3.69449446 6.43268866 -7.08984375 9.37109375 C-8.55140689 10.64236296 -10.00171109 11.92667398 -11.44140625 13.22265625 C-12.14136719 13.85042969 -12.84132813 14.47820313 -13.5625 15.125 C-14.51576172 15.98738281 -14.51576172 15.98738281 -15.48828125 16.8671875 C-17.25 18.25 -17.25 18.25 -20.25 19.25 C-20.25 17.6 -20.25 15.95 -20.25 14.25 C-19.59 14.91 -18.93 15.57 -18.25 16.25 C-17.50234375 15.43015625 -16.7546875 14.6103125 -15.984375 13.765625 C-14.98963227 12.67703861 -13.99483787 11.58849945 -13 10.5 C-12.50886719 9.96117187 -12.01773437 9.42234375 -11.51171875 8.8671875 C-10.09806171 7.32158914 -8.67434829 5.78573831 -7.25 4.25 C-6.5384375 3.46625 -5.826875 2.6825 -5.09375 1.875 C-3.25 0.25 -3.25 0.25 0 0 Z " fill="#B4B0A5" transform="translate(271.25,39.75)"/>
<path d="M0 0 C0.33 0 0.66 0 1 0 C1.33 6.93 1.66 13.86 2 21 C-2.62 21 -7.24 21 -12 21 C-10 18 -10 18 -7.8359375 17.48828125 C-7.02382812 17.43027344 -6.21171875 17.37226562 -5.375 17.3125 C-4.55773437 17.24675781 -3.74046875 17.18101563 -2.8984375 17.11328125 C-1.95871094 17.05720703 -1.95871094 17.05720703 -1 17 C-1.01160156 15.85660156 -1.02320313 14.71320313 -1.03515625 13.53515625 C-1.04453288 12.04427246 -1.05363321 10.55338691 -1.0625 9.0625 C-1.07087891 8.30775391 -1.07925781 7.55300781 -1.08789062 6.77539062 C-1.09652441 4.85005687 -1.05224333 2.92464419 -1 1 C-0.67 0.67 -0.34 0.34 0 0 Z " fill="#073B5E" transform="translate(140,64)"/>
<path d="M0 0 C1.32 0 2.64 0 4 0 C4 0.99 4 1.98 4 3 C3.01 3 2.02 3 1 3 C1 23.46 1 43.92 1 65 C0.67 65 0.34 65 0 65 C0 43.55 0 22.1 0 0 Z " fill="#C18D4A" transform="translate(243,20)"/>
<path d="M0 0 C2.97 0.495 2.97 0.495 6 1 C6.08082094 2.95766281 6.13910778 4.91626728 6.1875 6.875 C6.22230469 7.96554688 6.25710937 9.05609375 6.29296875 10.1796875 C6.19628906 11.11039063 6.09960938 12.04109375 6 13 C5.01 13.66 4.02 14.32 3 15 C2.34 15.99 1.68 16.98 1 18 C0.67 12.06 0.34 6.12 0 0 Z " fill="#268CD0" transform="translate(124,67)"/>
<path d="M0 0 C0.33 0 0.66 0 1 0 C1.33 4.29 1.66 8.58 2 13 C-6.78504673 18.27102804 -6.78504673 18.27102804 -11.75 18.125 C-12.54921875 18.10695313 -13.3484375 18.08890625 -14.171875 18.0703125 C-14.77515625 18.04710938 -15.3784375 18.02390625 -16 18 C-16.33 16.68 -16.66 15.36 -17 14 C-16.43152344 14.13019531 -15.86304688 14.26039062 -15.27734375 14.39453125 C-11.00285856 15.15808704 -7.82675286 15.46286657 -4 13.1875 C-0.93899384 10.699107 -0.46310008 8.55082131 -0.0625 4.6875 C-0.01006138 3.12574123 0.02123779 1.56249455 0 0 Z " fill="#988773" transform="translate(311,64)"/>
<path d="M0 0 C-0.99 0.66 -1.98 1.32 -3 2 C-3.33 1.67 -3.66 1.34 -4 1 C-12.08415159 0.33896348 -18.34016089 0.15648064 -25 5 C-25.66 5 -26.32 5 -27 5 C-27.33 6.32 -27.66 7.64 -28 9 C-28.25 6.1875 -28.25 6.1875 -28 3 C-21.70604023 -4.04923494 -7.86241203 -3.62880555 0 0 Z " fill="#A0988F" transform="translate(314,41)"/>
<path d="M0 0 C7.59 0 15.18 0 23 0 C23 0.99 23 1.98 23 3 C6.1070615 3.18451025 6.1070615 3.18451025 -1 2 C-0.67 1.34 -0.34 0.68 0 0 Z " fill="#5DACE1" transform="translate(113,36)"/>
<path d="M0 0 C0.66 0 1.32 0 2 0 C2 1.98 2 3.96 2 6 C-2.29 6 -6.58 6 -11 6 C-11 5.34 -11 4.68 -11 4 C-11.99 4 -12.98 4 -14 4 C-14 3.34 -14 2.68 -14 2 C-9.38 2 -4.76 2 0 2 C0 1.34 0 0.68 0 0 Z " fill="#04456F" transform="translate(139,52)"/>
<path d="M0 0 C1.98 0 3.96 0 6 0 C5.34 1.32 4.68 2.64 4 4 C3.01 4 2.02 4 1 4 C1 17.53 1 31.06 1 45 C0.67 45 0.34 45 0 45 C0 30.15 0 15.3 0 0 Z " fill="#A86539" transform="translate(221,40)"/>
<path d="M0 0 C7.26 0 14.52 0 22 0 C21.67 0.66 21.34 1.32 21 2 C18.29283758 2.90238747 16.76223232 3.11851302 13.98828125 3.09765625 C12.85229492 3.09282227 12.85229492 3.09282227 11.69335938 3.08789062 C10.90767578 3.07951172 10.12199219 3.07113281 9.3125 3.0625 C8.51521484 3.05798828 7.71792969 3.05347656 6.89648438 3.04882812 C4.93095743 3.0370585 2.96546915 3.01912348 1 3 C0.67 2.01 0.34 1.02 0 0 Z " fill="#6F7274" transform="translate(154,51)"/>
<path d="M0 0 C1.32 0 2.64 0 4 0 C4 3.3 4 6.6 4 10 C3.67 10 3.34 10 3 10 C3 8.02 3 6.04 3 4 C2.50757813 4.32484375 2.01515625 4.6496875 1.5078125 4.984375 C-2.00651085 6.40762121 -5.39518123 6.29003383 -9.125 6.25 C-9.85332031 6.25773437 -10.58164063 6.26546875 -11.33203125 6.2734375 C-16.74657931 6.25342069 -16.74657931 6.25342069 -19 4 C-12.73 4 -6.46 4 0 4 C0 2.68 0 1.36 0 0 Z " fill="#1C78B6" transform="translate(138,36)"/>
<path d="M0 0 C14.85 0 29.7 0 45 0 C45 0.33 45 0.66 45 1 C43.10725342 1.02187378 43.10725342 1.02187378 41.17626953 1.04418945 C36.50573021 1.10205329 31.83567908 1.17928617 27.16552734 1.26245117 C25.14217029 1.29575679 23.11871907 1.323771 21.09521484 1.34643555 C18.19067148 1.37987835 15.28699558 1.43218769 12.3828125 1.48828125 C11.47443634 1.49467117 10.56606018 1.5010611 9.63015747 1.50764465 C8.78943695 1.52743881 7.94871643 1.54723297 7.08251953 1.56762695 C6.34083527 1.57873001 5.599151 1.58983307 4.83499146 1.60127258 C2.58638164 1.86719253 2.58638164 1.86719253 1 5 C0.34 5 -0.32 5 -1 5 C-0.67 3.35 -0.34 1.7 0 0 Z " fill="#1D8ACF" transform="translate(63,27)"/>
<path d="M0 0 C1.98 0 3.96 0 6 0 C6 3.3 6 6.6 6 10 C5.67 10 5.34 10 5 10 C5 8.02 5 6.04 5 4 C4.4534375 4.16113281 3.906875 4.32226562 3.34375 4.48828125 C0.6772975 5.07045671 -1.77146089 5.16876003 -4.5 5.1875 C-5.4384375 5.20167969 -6.376875 5.21585938 -7.34375 5.23046875 C-10 5 -10 5 -14 3 C-9.38 3 -4.76 3 0 3 C0 2.01 0 1.02 0 0 Z " fill="#2E94D7" transform="translate(136,48)"/>
<path d="M0 0 C0.66 0 1.32 0 2 0 C2 14.85 2 29.7 2 45 C1.67 45 1.34 45 1 45 C0.67 31.47 0.34 17.94 0 4 C-0.99 4.495 -0.99 4.495 -2 5 C-1.34 3.35 -0.68 1.7 0 0 Z " fill="#051A37" transform="translate(227,40)"/>
<path d="M0 0 C0.66 0 1.32 0 2 0 C2.33 7.59 2.66 15.18 3 23 C1.68 23 0.36 23 -1 23 C-0.67 15.41 -0.34 7.82 0 0 Z " fill="#1E2B3C" transform="translate(152,31)"/>
<path d="M0 0 C0 1.98 0 3.96 0 6 C-5.61 5.67 -11.22 5.34 -17 5 C-17 4.34 -17 3.68 -17 3 C-12.71 3 -8.42 3 -4 3 C-4 2.34 -4 1.68 -4 1 C-2 0 -2 0 0 0 Z " fill="#003F6A" transform="translate(141,40)"/>
<path d="M0 0 C0.66 0 1.32 0 2 0 C2 0.99 2 1.98 2 3 C2.99 3 3.98 3 5 3 C5 5.97 5 8.94 5 12 C-2.92 12.495 -2.92 12.495 -11 13 C-6.61501596 10.07667731 -3.2225328 10.8643498 2 11 C1.34 7.37 0.68 3.74 0 0 Z " fill="#6D5F52" transform="translate(309,48)"/>
<path d="M0 0 C-2.5654594 2.5654594 -4.47686668 2.54046087 -8 3 C-8 3.66 -8 4.32 -8 5 C-10.64 5.99 -13.28 6.98 -16 8 C-16 6.02 -16 4.04 -16 2 C-15.01 3.485 -15.01 3.485 -14 5 C-13.38125 4.360625 -12.7625 3.72125 -12.125 3.0625 C-8.20365454 -0.74351177 -5.25644418 -0.08478136 0 0 Z " fill="#B2B4AA" transform="translate(211,39)"/>
<path d="M0 0 C0.33 0 0.66 0 1 0 C1 5.61 1 11.22 1 17 C-1.31 17.33 -3.62 17.66 -6 18 C-8.33588323 18.95584438 -8.33588323 18.95584438 -10 20 C-9.67 18.68 -9.34 17.36 -9 16 C-4.545 15.505 -4.545 15.505 0 15 C0 10.05 0 5.1 0 0 Z " fill="#0072BD" transform="translate(136,65)"/>
<path d="M0 0 C2.0625 0.4375 2.0625 0.4375 4 1 C3.67 1.66 3.34 2.32 3 3 C-6.57 3 -16.14 3 -26 3 C-26 2.67 -26 2.34 -26 2 C-24.8718689 1.96241577 -24.8718689 1.96241577 -23.72094727 1.92407227 C-20.33460804 1.80849486 -16.94857387 1.68559655 -13.5625 1.5625 C-11.78649414 1.50352539 -11.78649414 1.50352539 -9.97460938 1.44335938 C-8.84990234 1.40146484 -7.72519531 1.35957031 -6.56640625 1.31640625 C-5.52427979 1.27974854 -4.48215332 1.24309082 -3.40844727 1.20532227 C-1.0500174 1.26484659 -1.0500174 1.26484659 0 0 Z " fill="#1B88D0" transform="translate(137,26)"/>
<path d="M0 0 C2.6015625 -0.29296875 2.6015625 -0.29296875 5.625 -0.1875 C7.12933594 -0.14689453 7.12933594 -0.14689453 8.6640625 -0.10546875 C9.43492187 -0.07066406 10.20578125 -0.03585938 11 0 C11 0.99 11 1.98 11 3 C6.71 3 2.42 3 -2 3 C-1.34 2.01 -0.68 1.02 0 0 Z " fill="#00233B" transform="translate(130,82)"/>
<path d="M0 0 C2.05078125 0.03255208 4.1015625 0.06510417 6.15234375 0.09765625 C6.15234375 1.08765625 6.15234375 2.07765625 6.15234375 3.09765625 C3.51234375 3.42765625 0.87234375 3.75765625 -1.84765625 4.09765625 C-2.17765625 5.41765625 -2.50765625 6.73765625 -2.84765625 8.09765625 C-2.89007348 5.7647085 -2.88858562 3.43063058 -2.84765625 1.09765625 C-1.84765625 0.09765625 -1.84765625 0.09765625 0 0 Z " fill="#88837D" transform="translate(222.84765625,22.90234375)"/>
<path d="M0 0 C8.91 0 17.82 0 27 0 C27 0.33 27 0.66 27 1 C26.03960815 1.03758423 26.03960815 1.03758423 25.05981445 1.07592773 C22.14386274 1.1923546 19.2281971 1.31486867 16.3125 1.4375 C15.30509766 1.47681641 14.29769531 1.51613281 13.25976562 1.55664062 C12.28330078 1.59853516 11.30683594 1.64042969 10.30078125 1.68359375 C9.40528564 1.72025146 8.50979004 1.75690918 7.5871582 1.79467773 C4.99221912 2.00061751 2.53945316 2.43767822 0 3 C0 2.01 0 1.02 0 0 Z " fill="#959391" transform="translate(146,24)"/>
<path d="M0 0 C0.99 0.33 1.98 0.66 3 1 C3 3.97 3 6.94 3 10 C2.34 10 1.68 10 1 10 C1 11.65 1 13.3 1 15 C0.67 15 0.34 15 0 15 C0 10.05 0 5.1 0 0 Z " fill="#57A8DE" transform="translate(125,70)"/>
<path d="M0 0 C5.61 0 11.22 0 17 0 C17 0.66 17 1.32 17 2 C12.38 2 7.76 2 3 2 C3 2.66 3 3.32 3 4 C3.99 4 4.98 4 6 4 C6 4.66 6 5.32 6 6 C4.68 6 3.36 6 2 6 C1.34 4.02 0.68 2.04 0 0 Z " fill="#0C6199" transform="translate(122,52)"/>
<path d="M0 0 C-3.02272532 3.25524265 -6.25718301 5.61820737 -10 8 C-9.64505955 5.37344067 -9.27538036 3.42031739 -7.8125 1.1875 C-5.20638339 -0.51995571 -3.0400645 -0.20267097 0 0 Z " fill="#928E8A" transform="translate(274,40)"/>
<path d="M0 0 C1.32 0 2.64 0 4 0 C2.92598892 2.91517292 2.22189824 4.77810176 0 7 C-0.99 7 -1.98 7 -3 7 C-1.125 1.125 -1.125 1.125 0 0 Z " fill="#78B4DC" transform="translate(51,36)"/>
<path d="M0 0 C0.66 0 1.32 0 2 0 C2 3.63 2 7.26 2 11 C1.34 11 0.68 11 0 11 C-0.19406478 9.35492782 -0.38007935 7.70890406 -0.5625 6.0625 C-0.66691406 5.14597656 -0.77132813 4.22945313 -0.87890625 3.28515625 C-0.91886719 2.53105469 -0.95882813 1.77695313 -1 1 C-0.67 0.67 -0.34 0.34 0 0 Z " fill="#2E2E2E" transform="translate(313,65)"/>
<path d="M0 0 C0.33 0.66 0.66 1.32 1 2 C0.0625 4.125 0.0625 4.125 -1 6 C-1.66 6 -2.32 6 -3 6 C-3 7.65 -3 9.3 -3 11 C-3.33 11 -3.66 11 -4 11 C-4 7.7 -4 4.4 -4 1 C-2.68 0.67 -1.36 0.34 0 0 Z " fill="#8A775D" transform="translate(288,67)"/>
<path d="M0 0 C2.22909871 -0.02714735 4.45829367 -0.04646254 6.6875 -0.0625 C7.92886719 -0.07410156 9.17023438 -0.08570313 10.44921875 -0.09765625 C13.46235454 -0.01478673 16.08275339 0.29160551 19 1 C18.34 1.66 17.68 2.32 17 3 C14.07008981 2.81870815 11.27307887 2.53430659 8.375 2.125 C7.57320313 2.02058594 6.77140625 1.91617188 5.9453125 1.80859375 C3.96222803 1.54890412 1.98091972 1.27571688 0 1 C0 0.67 0 0.34 0 0 Z " fill="#44474A" transform="translate(296,41)"/>
<path d="M0 0 C1.32 0 2.64 0 4 0 C4 3.3 4 6.6 4 10 C3.67 10 3.34 10 3 10 C3 8.02 3 6.04 3 4 C2.01 4 1.02 4 0 4 C0 2.68 0 1.36 0 0 Z " fill="#3A7CA8" transform="translate(138,48)"/>
<path d="M0 0 C0.99 0 1.98 0 3 0 C3.1875 3.3125 3.1875 3.3125 3 7 C2.01 7.99 1.02 8.98 0 10 C0 6.7 0 3.4 0 0 Z " fill="#262945" transform="translate(192,40)"/>
<path d="M0 0 C0 1.98 0 3.96 0 6 C-1.32 6 -2.64 6 -4 6 C-4 4.35 -4 2.7 -4 1 C-2 0 -2 0 0 0 Z " fill="#013151" transform="translate(141,40)"/>
<path d="M0 0 C0.66 0 1.32 0 2 0 C2 1.98 2 3.96 2 6 C0.68 6 -0.64 6 -2 6 C-2 4.68 -2 3.36 -2 2 C-1.34 2 -0.68 2 0 2 C0 1.34 0 0.68 0 0 Z " fill="#022F4C" transform="translate(139,52)"/>
<path d="M0 0 C1.98 0 3.96 0 6 0 C5.34 1.32 4.68 2.64 4 4 C2.68 4 1.36 4 0 4 C0 2.68 0 1.36 0 0 Z " fill="#918983" transform="translate(221,40)"/>
<path d="M0 0 C1.65 0 3.3 0 5 0 C5 1.32 5 2.64 5 4 C3.35 4 1.7 4 0 4 C0 2.68 0 1.36 0 0 Z " fill="#16415D" transform="translate(137,30)"/>
<path d="M0 0 C3.3 0.99 6.6 1.98 10 3 C10 3.33 10 3.66 10 4 C7.03 4 4.06 4 1 4 C0.67 2.68 0.34 1.36 0 0 Z " fill="#555B63" transform="translate(294,78)"/>
<path d="M0 0 C3.3 0 6.6 0 10 0 C10 0.33 10 0.66 10 1 C8.9275 1.12375 7.855 1.2475 6.75 1.375 C3.62136385 1.89643936 1.66519576 2.40088254 -1 4 C-0.67 2.68 -0.34 1.36 0 0 Z " fill="#00558D" transform="translate(127,81)"/>
<path d="M0 0 C2.31 0 4.62 0 7 0 C4.4345406 2.5654594 2.52313332 2.54046087 -1 3 C-1 3.66 -1 4.32 -1 5 C-1.66 4.67 -2.32 4.34 -3 4 C-2.67 3.34 -2.34 2.68 -2 2 C-1.34 2 -0.68 2 0 2 C0 1.34 0 0.68 0 0 Z " fill="#818487" transform="translate(204,39)"/>
<path d="M0 0 C1.95803507 -0.05389087 3.91648909 -0.09274217 5.875 -0.125 C7.51082031 -0.15980469 7.51082031 -0.15980469 9.1796875 -0.1953125 C12 0 12 0 14 2 C13.01 2.33 12.02 2.66 11 3 C10.67 2.67 10.34 2.34 10 2 C8.31816052 1.76712992 6.6287584 1.58735834 4.9375 1.4375 C4.01839844 1.35371094 3.09929687 1.26992188 2.15234375 1.18359375 C1.08693359 1.09271484 1.08693359 1.09271484 0 1 C0 0.67 0 0.34 0 0 Z " fill="#6E747B" transform="translate(300,40)"/>
</svg>
